<?xml version="1.0" encoding="utf-8"?>
<!-- Generator: Adobe Illustrator 22.0.1, SVG Export Plug-In . SVG Version: 6.00 Build 0)  -->
<svg version="1.1" id="Layer_1" xmlns="http://www.w3.org/2000/svg" xmlns:xlink="http://www.w3.org/1999/xlink" x="0px" y="0px"
	 viewBox="0 0 1125.9 339.1" style="enable-background:new 0 0 1125.9 339.1;" xml:space="preserve">
<g>
	<g id="Logo_Circles">
		<g id="Inner">
			<polyline fill="#FACB12" points="310.2,114.2 309.3,122.2 322.6,124.4 322.9,116.3 310.2,114.2 			"/>
			<polyline fill="#FACB12" points="308.1,126 303.7,133.9 316.9,138.7 321,130.5 308.1,126 			"/>
			<polyline fill="#FACB12" points="300.6,137.5 292.4,144.5 304.2,152 312.4,144.5 300.6,137.5 			"/>
			<polyline fill="#FACB12" points="287.6,147.5 275.9,152.9 284.9,162.8 296.8,157 287.6,147.5 			"/>
			<polyline fill="#FACB12" points="269.7,154.9 255.6,157.8 260.3,169.4 274.9,166.2 269.7,154.9 			"/>
			<polyline fill="#FACB12" points="248.6,158.6 233.6,158.6 233.3,170.6 248.9,170.6 248.6,158.6 			"/>
			<polyline fill="#FACB12" points="212.6,154.9 207.3,166.2 222,169.4 226.6,157.8 212.6,154.9 			"/>
			<polyline fill="#FACB12" points="194.7,147.5 185.5,157 197.4,162.8 206.4,152.9 194.7,147.5 			"/>
			<polyline fill="#FACB12" points="181.6,137.5 169.9,144.5 178,152 189.9,144.5 181.6,137.5 			"/>
			<polyline fill="#FACB12" points="174.1,126 161.3,130.5 165.4,138.7 178.6,133.9 174.1,126 			"/>
			<polyline fill="#FACB12" points="172.1,114.2 159.3,116.3 159.7,124.4 172.9,122.2 172.1,114.2 			"/>
			<polyline fill="#FACB12" points="174.9,103.2 163.1,103.2 160.3,110.6 172.5,110.6 174.9,103.2 			"/>
			<polyline fill="#FACB12" points="171.4,91.8 166.1,98.1 176.7,99.9 181.6,93.4 171.4,91.8 			"/>
			<polyline fill="#FACB12" points="183,82.4 176,87.5 184.5,90.6 191.4,85.3 183,82.4 			"/>
			<polyline fill="#FACB12" points="197,75.2 188.7,79.1 195.1,83.1 203.4,79.1 197,75.2 			"/>
			<polyline fill="#FACB12" points="212.6,70.3 203.5,72.9 207.7,77.5 217,74.8 212.6,70.3 			"/>
			<polyline fill="#FACB12" points="229.1,67.6 219.6,68.9 221.5,73.8 231.4,72.5 229.1,67.6 			"/>
			<polyline fill="#FACB12" points="246,67.2 236.3,67.2 236.1,72.2 246.1,72.2 246,67.2 			"/>
			<polyline fill="#FACB12" points="253.1,67.6 250.9,72.5 260.7,73.8 262.7,68.9 253.1,67.6 			"/>
			<polyline fill="#FACB12" points="269.6,70.3 265.3,74.8 274.6,77.5 278.8,72.9 269.6,70.3 			"/>
			<polyline fill="#FACB12" points="285.2,75.2 278.8,79.1 287.2,83.1 293.5,79.1 285.2,75.2 			"/>
			<polyline fill="#FACB12" points="299.2,82.4 290.8,85.3 297.8,90.6 306.3,87.5 299.2,82.4 			"/>
			<polyline fill="#FACB12" points="310.9,91.8 300.6,93.4 305.6,99.9 316.1,98.1 310.9,91.8 			"/>
			<polyline fill="#FACB12" points="319.2,103.2 307.4,103.2 309.8,110.6 322,110.6 319.2,103.2 			"/>
		</g>
		<g id="Mid">
			<polyline fill="#FACB12" points="341.7,135.2 336.4,148.3 358.8,156.5 363.1,142.6 341.7,135.2 			"/>
			<polyline fill="#FACB12" points="314.7,170.6 296.2,180.4 312.8,199.1 331.8,188 314.7,170.6 			"/>
			<polyline fill="#FACB12" points="253.8,190.3 228.7,190.3 227.7,213.7 254.9,213.7 253.8,190.3 			"/>
			<polyline fill="#FACB12" points="167.8,170.7 150.6,188.1 169.6,199.2 186.2,180.5 167.8,170.7 			"/>
			<polyline fill="#FACB12" points="140.6,135.4 119.2,142.7 123.5,156.6 145.9,148.4 140.6,135.4 			"/>
			<polyline fill="#FACB12" points="146.6,101.5 129,101.5 122.9,112.6 141.4,112.6 146.6,101.5 			"/>
			<polyline fill="#FACB12" points="161.3,73.1 150.2,80.1 162,84.5 172.8,77.1 161.3,73.1 			"/>
			<polyline fill="#FACB12" points="203,57.7 190,61.1 195.4,67.1 208.7,63.6 203,57.7 			"/>
			<polyline fill="#FACB12" points="247.8,53.9 234.3,53.9 234.1,60.3 248.1,60.3 247.8,53.9 			"/>
			<polyline fill="#FACB12" points="279.1,57.7 273.4,63.5 286.7,67.1 292.1,61 279.1,57.7 			"/>
			<polyline fill="#FACB12" points="320.9,73 309.3,77 320.1,84.4 331.9,80.1 320.9,73 			"/>
			<polyline fill="#FACB12" points="353.2,101.4 335.6,101.4 340.8,112.5 359.2,112.5 353.2,101.4 			"/>
		</g>
		<g id="Outer">
			<polyline fill="#FFFFFF" points="392.6,123.7 397.3,141.7 428.4,147 421.2,128.3 392.6,123.7 			"/>
			<polyline fill="#FFFFFF" points="390.1,184.5 376,205.5 413.6,229.9 425.9,205.5 390.1,184.5 			"/>
			<polyline fill="#FFFFFF" points="320.4,242.9 283.5,253.6 300.9,300.3 342,286.6 320.4,242.9 			"/>
			<polyline fill="#FFFFFF" points="161.1,242.7 139.5,286.3 180.4,300 198,253.4 161.1,242.7 			"/>
			<polyline fill="#FFFFFF" points="91.9,184.1 56.1,205.1 68.4,229.4 106,205.1 91.9,184.1 			"/>
			<polyline fill="#FFFFFF" points="89.8,123.4 61.3,127.9 54.1,146.6 85,141.3 89.8,123.4 			"/>
			<polyline fill="#FFFFFF" points="105.8,77.8 91.7,89 110.7,92.3 123.9,80.7 105.8,77.8 			"/>
			<polyline fill="#FFFFFF" points="161.8,50.2 145.9,56 155.6,62.2 171.7,56 161.8,50.2 			"/>
			<polyline fill="#FFFFFF" points="220.1,38.8 204,40.6 206.6,47.6 223.5,45.6 220.1,38.8 			"/>
			<polyline fill="#FFFFFF" points="262.5,38.9 259.1,45.7 276,47.6 278.6,40.6 262.5,38.9 			"/>
			<polyline fill="#FFFFFF" points="320.8,50.3 310.9,56.1 327,62.3 336.6,56.1 320.8,50.3 			"/>
			<polyline fill="#FFFFFF" points="376.7,78 358.6,80.9 371.8,92.5 390.9,89.3 376.7,78 			"/>
		</g>
	</g>
	<g>
		<g>
			<path fill="#FACA0B" d="M627,84.5v52.1h-4.3c-3.3-13.6-9.3-24-18.2-31.3c-8.9-7.2-18.9-10.9-30.2-10.9c-9.4,0-18,2.7-25.8,8.1
				c-7.8,5.4-13.6,12.5-17.2,21.2c-4.7,11.2-7,23.6-7,37.2c0,13.5,1.7,25.7,5.1,36.8c3.4,11,8.7,19.4,16,25.1
				c7.2,5.7,16.6,8.5,28.2,8.5c9.5,0,18.1-2.1,26-6.2c7.9-4.1,16.2-11.3,24.9-21.4v13c-8.4,8.8-17.2,15.2-26.3,19.1
				c-9.1,4-19.8,5.9-32,5.9c-16,0-30.3-3.2-42.7-9.6c-12.5-6.4-22.1-15.7-28.8-27.7c-6.8-12-10.1-24.9-10.1-38.5
				c0-14.3,3.8-27.9,11.3-40.8c7.5-12.9,17.6-22.8,30.4-29.9c12.7-7.1,26.3-10.6,40.6-10.6c10.6,0,21.7,2.3,33.5,6.9
				c6.8,2.7,11.1,4,13,4c2.4,0,4.4-0.9,6.2-2.6c1.7-1.7,2.9-4.5,3.4-8.3H627z"/>
			<path fill="#FACA0B" d="M796.1,84.5v53h-4.1c-5-14.5-12.4-25.5-22.3-33c-9.9-7.5-20.7-11.3-32.5-11.3c-11.2,0-20.6,3.2-28,9.5
				c-7.5,6.3-12.7,15.1-15.9,26.4c-3.1,11.3-4.7,22.9-4.7,34.8c0,14.4,1.7,27.1,5.1,37.9c3.4,10.9,8.9,18.8,16.5,23.9
				c7.6,5.1,16.6,7.6,27,7.6c3.6,0,7.3-0.4,11.1-1.2c3.8-0.8,7.7-1.9,11.7-3.4v-31.3c0-5.9-0.4-9.7-1.2-11.5c-0.8-1.7-2.5-3.3-5-4.7
				c-2.5-1.4-5.6-2.1-9.3-2.1h-3.9v-4.1h73.1v4.1c-5.5,0.4-9.4,1.1-11.6,2.3c-2.2,1.1-3.9,3-5,5.7c-0.7,1.4-1,4.8-1,10.3v31.3
				c-9.6,4.3-19.6,7.5-30,9.7c-10.4,2.2-21.2,3.3-32.3,3.3c-14.3,0-26.1-1.9-35.5-5.8c-9.4-3.9-17.7-9-24.9-15.3
				c-7.2-6.3-12.8-13.4-16.9-21.3c-5.2-10.2-7.8-21.6-7.8-34.3c0-22.6,7.9-41.7,23.8-57.3c15.9-15.6,35.9-23.4,60-23.4
				c7.5,0,14.2,0.6,20.2,1.8c3.3,0.6,8.5,2.3,15.8,5c7.3,2.8,11.6,4.2,12.9,4.2c2.1,0,4-0.8,5.8-2.3c1.8-1.5,3.4-4.4,4.9-8.6H796.1z
				"/>
			<path fill="#FACA0B" d="M878.4,96.6v61.8h4.3c6.7,0,12.1-1,16.3-3c4.2-2,7.8-5.4,10.7-10.1c2.9-4.7,4.8-11.1,5.7-19.2h3.9v75.5h-3.9
				c-1.4-14.3-5.2-23.7-11.5-28.2c-6.2-4.5-13.3-6.8-21.2-6.8h-4.3v46c0,7.7,0.4,12.5,1.3,14.4c0.8,1.9,2.5,3.6,5,5
				c2.5,1.4,5.8,2.2,10,2.2h5v4.1h-78.6v-4.1h5c4.4,0,7.9-0.8,10.5-2.3c1.9-1,3.4-2.8,4.4-5.3c0.8-1.8,1.2-6.4,1.2-14v-98.9
				c0-7.7-0.4-12.5-1.2-14.4c-0.8-1.9-2.5-3.6-4.9-5c-2.5-1.4-5.8-2.2-10-2.2h-5v-4.1h126.8v43.1h-4.5c-1-10.1-3.7-17.6-7.9-22.5
				c-4.3-4.9-10.4-8.3-18.5-10.3c-4.4-1.1-12.6-1.7-24.6-1.7H878.4z"/>
			<path fill="#FACA0B" d="M1061.3,84.5l1.2,50.1h-4.5c-2.1-12.6-7.4-22.7-15.8-30.3c-8.4-7.6-17.5-11.5-27.2-11.5
				c-7.5,0-13.5,2-17.9,6c-4.4,4-6.6,8.7-6.6,13.9c0,3.3,0.8,6.3,2.3,8.9c2.1,3.5,5.6,6.9,10.3,10.3c3.5,2.4,11.5,6.8,24.1,13
				c17.6,8.6,29.5,16.8,35.6,24.5c6.1,7.7,9.1,16.5,9.1,26.4c0,12.6-4.9,23.4-14.7,32.4c-9.8,9.1-22.2,13.6-37.3,13.6
				c-4.7,0-9.2-0.5-13.4-1.4c-4.2-1-9.5-2.8-15.9-5.4c-3.5-1.5-6.5-2.2-8.8-2.2c-1.9,0-4,0.7-6.1,2.2c-2.1,1.5-3.9,3.7-5.2,6.8h-4.1
				v-56.8h4.1c3.3,16,9.5,28.1,18.8,36.5c9.3,8.4,19.3,12.6,30,12.6c8.3,0,14.9-2.3,19.8-6.8c4.9-4.5,7.4-9.8,7.4-15.7
				c0-3.5-0.9-7-2.8-10.3s-4.8-6.5-8.6-9.5c-3.8-3-10.6-6.9-20.4-11.7c-13.7-6.7-23.5-12.5-29.5-17.2c-6-4.7-10.6-10-13.8-15.9
				c-3.2-5.8-4.8-12.3-4.8-19.3c0-12,4.4-22.2,13.2-30.6c8.8-8.4,19.9-12.6,33.3-12.6c4.9,0,9.6,0.6,14.2,1.8
				c3.5,0.9,7.7,2.5,12.7,4.9c5,2.4,8.5,3.6,10.5,3.6c1.9,0,3.4-0.6,4.5-1.8c1.1-1.2,2.1-4,3.1-8.5H1061.3z"/>
		</g>
	</g>
</g>
</svg>
