<?xml version="1.0" encoding="utf-8"?>
<!-- Generator: Adobe Illustrator 22.0.1, SVG Export Plug-In . SVG Version: 6.00 Build 0)  -->
<svg version="1.1" id="Layer_1" xmlns="http://www.w3.org/2000/svg" xmlns:xlink="http://www.w3.org/1999/xlink" x="0px" y="0px"
	 viewBox="0 0 380 380" style="enable-background:new 0 0 380 380;" xml:space="preserve">

<g id="Logo_Circles">
	<g id="Inner">
		<polyline fill="#FACB12" points="259.2,135 258.3,143 271.6,145.2 271.9,137.1 259.2,135 		"/>
		<polyline fill="#FACB12" points="257.1,146.8 252.7,154.7 265.9,159.5 270,151.3 257.1,146.8 		"/>
		<polyline fill="#FACB12" points="249.6,158.3 241.4,165.3 253.2,172.8 261.4,165.3 249.6,158.3 		"/>
		<polyline fill="#FACB12" points="236.6,168.3 224.9,173.7 233.9,183.6 245.8,177.8 236.6,168.3 		"/>
		<polyline fill="#FACB12" points="218.7,175.7 204.6,178.6 209.3,190.2 223.9,187 218.7,175.7 		"/>
		<polyline fill="#FACB12" points="197.6,179.4 182.6,179.4 182.3,191.4 197.9,191.4 197.6,179.4 		"/>
		<polyline fill="#FACB12" points="161.6,175.7 156.3,187 171,190.2 175.6,178.6 161.6,175.7 		"/>
		<polyline fill="#FACB12" points="143.7,168.3 134.5,177.8 146.4,183.6 155.4,173.7 143.7,168.3 		"/>
		<polyline fill="#FACB12" points="130.6,158.3 118.9,165.3 127,172.8 138.9,165.3 130.6,158.3 		"/>
		<polyline fill="#FACB12" points="123.1,146.8 110.3,151.3 114.4,159.5 127.6,154.7 123.1,146.8 		"/>
		<polyline fill="#FACB12" points="121.1,135 108.3,137.1 108.7,145.2 121.9,143 121.1,135 		"/>
		<polyline fill="#FACB12" points="123.9,124 112.1,124 109.3,131.4 121.5,131.4 123.9,124 		"/>
		<polyline fill="#FACB12" points="120.4,112.6 115.1,118.9 125.7,120.7 130.6,114.2 120.4,112.6 		"/>
		<polyline fill="#FACB12" points="132,103.2 125,108.3 133.5,111.4 140.4,106.1 132,103.2 		"/>
		<polyline fill="#FACB12" points="146,96 137.7,99.9 144.1,103.9 152.4,99.9 146,96 		"/>
		<polyline fill="#FACB12" points="161.6,91.1 152.5,93.7 156.7,98.3 166,95.6 161.6,91.1 		"/>
		<polyline fill="#FACB12" points="178.1,88.4 168.6,89.7 170.5,94.6 180.4,93.3 178.1,88.4 		"/>
		<polyline fill="#FACB12" points="195,88 185.3,88 185.1,93 195.1,93 195,88 		"/>
		<polyline fill="#FACB12" points="202.1,88.4 199.9,93.3 209.7,94.6 211.7,89.7 202.1,88.4 		"/>
		<polyline fill="#FACB12" points="218.6,91.1 214.3,95.6 223.6,98.3 227.8,93.7 218.6,91.1 		"/>
		<polyline fill="#FACB12" points="234.2,96 227.8,99.9 236.2,103.9 242.5,99.9 234.2,96 		"/>
		<polyline fill="#FACB12" points="248.2,103.2 239.8,106.1 246.8,111.4 255.3,108.3 248.2,103.2 		"/>
		<polyline fill="#FACB12" points="259.9,112.6 249.6,114.2 254.6,120.7 265.1,118.9 259.9,112.6 		"/>
		<polyline fill="#FACB12" points="268.2,124 256.4,124 258.8,131.4 271,131.4 268.2,124 		"/>
	</g>
	<g id="Mid">
		<polyline fill="#FACB12" points="290.7,156 285.4,169.1 307.8,177.3 312.1,163.4 290.7,156 		"/>
		<polyline fill="#FACB12" points="263.7,191.4 245.2,201.2 261.8,219.9 280.8,208.8 263.7,191.4 		"/>
		<polyline fill="#FACB12" points="202.8,211.1 177.7,211.1 176.7,234.5 203.9,234.5 202.8,211.1 		"/>
		<polyline fill="#FACB12" points="116.8,191.5 99.6,208.9 118.6,220 135.2,201.3 116.8,191.5 		"/>
		<polyline fill="#FACB12" points="89.6,156.2 68.2,163.5 72.5,177.4 94.9,169.2 89.6,156.2 		"/>
		<polyline fill="#FACB12" points="95.6,122.3 78,122.3 71.9,133.4 90.4,133.4 95.6,122.3 		"/>
		<polyline fill="#FACB12" points="110.3,93.9 99.2,100.9 111,105.3 121.8,97.9 110.3,93.9 		"/>
		<polyline fill="#FACB12" points="152,78.5 139,81.9 144.4,87.9 157.7,84.4 152,78.5 		"/>
		<polyline fill="#FACB12" points="196.8,74.7 183.3,74.7 183.1,81.1 197.1,81.1 196.8,74.7 		"/>
		<polyline fill="#FACB12" points="228.1,78.5 222.4,84.3 235.7,87.9 241.1,81.8 228.1,78.5 		"/>
		<polyline fill="#FACB12" points="269.9,93.8 258.3,97.8 269.1,105.2 280.9,100.9 269.9,93.8 		"/>
		<polyline fill="#FACB12" points="302.2,122.2 284.6,122.2 289.8,133.3 308.2,133.3 302.2,122.2 		"/>
	</g>
	<g id="Outer">
		<polyline fill="#FFFFFF" points="341.6,144.5 346.3,162.5 377.4,167.8 370.2,149.1 341.6,144.5 		"/>
		<polyline fill="#FFFFFF" points="339.1,205.3 325,226.3 362.6,250.7 374.9,226.3 339.1,205.3 		"/>
		<polyline fill="#FFFFFF" points="269.4,263.7 232.5,274.4 249.9,321.1 291,307.4 269.4,263.7 		"/>
		<polyline fill="#FFFFFF" points="110.1,263.5 88.5,307.1 129.4,320.8 147,274.2 110.1,263.5 		"/>
		<polyline fill="#FFFFFF" points="40.9,204.9 5.1,225.9 17.4,250.2 55,225.9 40.9,204.9 		"/>
		<polyline fill="#FFFFFF" points="38.8,144.2 10.3,148.7 3.1,167.4 34,162.1 38.8,144.2 		"/>
		<polyline fill="#FFFFFF" points="54.8,98.6 40.7,109.8 59.7,113.1 72.9,101.5 54.8,98.6 		"/>
		<polyline fill="#FFFFFF" points="110.8,71 94.9,76.8 104.6,83 120.7,76.8 110.8,71 		"/>
		<polyline fill="#FFFFFF" points="169.1,59.6 153,61.4 155.6,68.4 172.5,66.4 169.1,59.6 		"/>
		<polyline fill="#FFFFFF" points="211.5,59.7 208.1,66.5 225,68.4 227.6,61.4 211.5,59.7 		"/>
		<polyline fill="#FFFFFF" points="269.8,71.1 259.9,76.9 276,83.1 285.6,76.9 269.8,71.1 		"/>
		<polyline fill="#FFFFFF" points="325.7,98.8 307.6,101.7 320.8,113.3 339.9,110.1 325.7,98.8 		"/>
	</g>
</g>
</svg>
