<?xml version="1.0" encoding="utf-8"?>
<!-- Generator: Adobe Illustrator 22.0.1, SVG Export Plug-In . SVG Version: 6.00 Build 0)  -->
<svg version="1.1" id="Logo" xmlns="http://www.w3.org/2000/svg" xmlns:xlink="http://www.w3.org/1999/xlink" x="0px" y="0px"
	 viewBox="0 0 792 612" style="enable-background:new 0 0 792 612;" xml:space="preserve">
<rect id="BG" fill="#1C704E" width="792" height="612"/>
<linearGradient id="BG_Gradient_1_" gradientUnits="userSpaceOnUse" x1="396" y1="612" x2="396" y2="-9.094947e-13">
	<stop  offset="0" style="stop-color:#036635"/>
	<stop  offset="1" style="stop-color:#47857A"/>
</linearGradient>
<rect id="BG_Gradient" fill="url(#BG_Gradient_1_)" width="792" height="612"/>
<g id="Logo_Circles">
	<g id="Inner">
		<polyline fill="#FBCC0A" points="465.2,190 464.3,198 477.6,200.2 477.9,192.1 465.2,190 		"/>
		<polyline fill="#FBCC0A" points="463.1,201.8 458.7,209.7 471.9,214.5 476,206.3 463.1,201.8 		"/>
		<polyline fill="#FBCC0A" points="455.6,213.3 447.4,220.3 459.2,227.8 467.4,220.3 455.6,213.3 		"/>
		<polyline fill="#FBCC0A" points="442.6,223.3 430.9,228.7 439.9,238.6 451.8,232.8 442.6,223.3 		"/>
		<polyline fill="#FBCC0A" points="424.7,230.7 410.6,233.6 415.3,245.2 429.9,242 424.7,230.7 		"/>
		<polyline fill="#FBCC0A" points="403.6,234.4 388.6,234.4 388.3,246.4 403.9,246.4 403.6,234.4 		"/>
		<polyline fill="#FBCC0A" points="367.6,230.7 362.3,242 377,245.2 381.6,233.6 367.6,230.7 		"/>
		<polyline fill="#FBCC0A" points="349.7,223.3 340.5,232.8 352.4,238.6 361.4,228.7 349.7,223.3 		"/>
		<polyline fill="#FBCC0A" points="336.6,213.3 324.9,220.3 333,227.8 344.9,220.3 336.6,213.3 		"/>
		<polyline fill="#FBCC0A" points="329.1,201.8 316.3,206.3 320.4,214.5 333.6,209.7 329.1,201.8 		"/>
		<polyline fill="#FBCC0A" points="327.1,190 314.3,192.1 314.7,200.2 327.9,198 327.1,190 		"/>
		<polyline fill="#FBCC0A" points="329.9,179 318.1,179 315.3,186.4 327.5,186.4 329.9,179 		"/>
		<polyline fill="#FBCC0A" points="326.4,167.6 321.1,173.9 331.7,175.7 336.6,169.2 326.4,167.6 		"/>
		<polyline fill="#FBCC0A" points="338,158.2 331,163.3 339.5,166.4 346.4,161.1 338,158.2 		"/>
		<polyline fill="#FBCC0A" points="352,151 343.7,154.9 350.1,158.9 358.4,154.9 352,151 		"/>
		<polyline fill="#FBCC0A" points="367.6,146.1 358.5,148.7 362.7,153.3 372,150.6 367.6,146.1 		"/>
		<polyline fill="#FBCC0A" points="384.1,143.4 374.6,144.7 376.5,149.6 386.4,148.3 384.1,143.4 		"/>
		<polyline fill="#FBCC0A" points="401,143 391.3,143 391.1,148 401.1,148 401,143 		"/>
		<polyline fill="#FBCC0A" points="408.1,143.4 405.9,148.3 415.7,149.6 417.7,144.7 408.1,143.4 		"/>
		<polyline fill="#FBCC0A" points="424.6,146.1 420.3,150.6 429.6,153.3 433.8,148.7 424.6,146.1 		"/>
		<polyline fill="#FBCC0A" points="440.2,151 433.8,154.9 442.2,158.9 448.5,154.9 440.2,151 		"/>
		<polyline fill="#FBCC0A" points="454.2,158.2 445.8,161.1 452.8,166.4 461.3,163.3 454.2,158.2 		"/>
		<polyline fill="#FBCC0A" points="465.9,167.6 455.6,169.2 460.6,175.7 471.1,173.9 465.9,167.6 		"/>
		<polyline fill="#FBCC0A" points="474.2,179 462.4,179 464.8,186.4 477,186.4 474.2,179 		"/>
	</g>
	<g id="Mid">
		<polyline fill="#FBCC0A" points="496.7,211 491.4,224.1 513.8,232.3 518.1,218.4 496.7,211 		"/>
		<polyline fill="#FBCC0A" points="469.7,246.4 451.2,256.2 467.8,274.9 486.8,263.8 469.7,246.4 		"/>
		<polyline fill="#FBCC0A" points="408.8,266.1 383.7,266.1 382.7,289.5 409.9,289.5 408.8,266.1 		"/>
		<polyline fill="#FBCC0A" points="322.8,246.5 305.6,263.9 324.6,275 341.2,256.3 322.8,246.5 		"/>
		<polyline fill="#FBCC0A" points="295.6,211.2 274.2,218.5 278.5,232.4 300.9,224.2 295.6,211.2 		"/>
		<polyline fill="#FBCC0A" points="301.6,177.3 284,177.3 277.9,188.4 296.4,188.4 301.6,177.3 		"/>
		<polyline fill="#FBCC0A" points="316.3,148.9 305.2,155.9 317,160.3 327.8,152.9 316.3,148.9 		"/>
		<polyline fill="#FBCC0A" points="358,133.5 345,136.9 350.4,142.9 363.7,139.4 358,133.5 		"/>
		<polyline fill="#FBCC0A" points="402.8,129.7 389.3,129.7 389.1,136.1 403.1,136.1 402.8,129.7 		"/>
		<polyline fill="#FBCC0A" points="434.1,133.5 428.4,139.3 441.7,142.9 447.1,136.8 434.1,133.5 		"/>
		<polyline fill="#FBCC0A" points="475.9,148.8 464.3,152.8 475.1,160.2 486.9,155.9 475.9,148.8 		"/>
		<polyline fill="#FBCC0A" points="508.2,177.2 490.6,177.2 495.8,188.3 514.2,188.3 508.2,177.2 		"/>
	</g>
	<g id="Outer">
		<polyline fill="#FFFFFF" points="547.6,199.5 552.3,217.5 583.4,222.8 576.2,204.1 547.6,199.5 		"/>
		<polyline fill="#FFFFFF" points="545.1,260.3 531,281.3 568.6,305.7 580.9,281.3 545.1,260.3 		"/>
		<polyline fill="#FFFFFF" points="475.4,318.7 438.5,329.4 455.9,376.1 497,362.4 475.4,318.7 		"/>
		<polyline fill="#FFFFFF" points="316.1,318.5 294.5,362.1 335.4,375.8 353,329.2 316.1,318.5 		"/>
		<polyline fill="#FFFFFF" points="246.9,259.9 211.1,280.9 223.4,305.2 261,280.9 246.9,259.9 		"/>
		<polyline fill="#FFFFFF" points="244.8,199.2 216.3,203.7 209.1,222.4 240,217.1 244.8,199.2 		"/>
		<polyline fill="#FFFFFF" points="260.8,153.6 246.7,164.8 265.7,168.1 278.9,156.5 260.8,153.6 		"/>
		<polyline fill="#FFFFFF" points="316.8,126 300.9,131.8 310.6,138 326.7,131.8 316.8,126 		"/>
		<polyline fill="#FFFFFF" points="375.1,114.6 359,116.4 361.6,123.4 378.5,121.4 375.1,114.6 		"/>
		<polyline fill="#FFFFFF" points="417.5,114.7 414.1,121.5 431,123.4 433.6,116.4 417.5,114.7 		"/>
		<polyline fill="#FFFFFF" points="475.8,126.1 465.9,131.9 482,138.1 491.6,131.9 475.8,126.1 		"/>
		<polyline fill="#FFFFFF" points="531.7,153.8 513.6,156.7 526.8,168.3 545.9,165.1 531.7,153.8 		"/>
	</g>
</g>
<g id="Name">
	<g id="Suriname">
		<path fill="#FFFFFF" d="M307.1,502l3.9-0.4c0.2,1.3,0.7,2.3,1.4,2.9c0.7,0.6,1.7,0.9,2.9,0.9c1.3,0,2.3-0.3,2.9-0.8
			c0.7-0.5,1-1.2,1-1.9c0-0.5-0.1-0.9-0.4-1.2c-0.3-0.3-0.8-0.6-1.5-0.9c-0.5-0.2-1.5-0.5-3.2-0.9c-2.2-0.5-3.7-1.2-4.6-2
			c-1.2-1.1-1.8-2.4-1.8-4c0-1,0.3-2,0.9-2.9s1.4-1.6,2.5-2c1.1-0.5,2.4-0.7,3.9-0.7c2.5,0,4.4,0.5,5.7,1.6c1.3,1.1,1.9,2.6,2,4.4
			l-4,0.2c-0.2-1-0.5-1.8-1.1-2.2c-0.6-0.4-1.4-0.7-2.6-0.7c-1.2,0-2.1,0.2-2.8,0.7c-0.4,0.3-0.6,0.7-0.6,1.2c0,0.5,0.2,0.9,0.6,1.2
			c0.5,0.4,1.7,0.9,3.7,1.3c2,0.5,3.4,0.9,4.4,1.4s1.7,1.2,2.2,2c0.5,0.9,0.8,1.9,0.8,3.2c0,1.1-0.3,2.2-1,3.2
			c-0.6,1-1.5,1.7-2.7,2.2c-1.2,0.5-2.6,0.7-4.3,0.7c-2.5,0-4.5-0.6-5.8-1.8C308.2,506,307.4,504.3,307.1,502z"/>
		<path fill="#FFFFFF" d="M331.2,488.6h4v10.8c0,1.7,0,2.8,0.1,3.3c0.2,0.8,0.6,1.5,1.2,2s1.5,0.7,2.7,0.7c1.1,0,2-0.2,2.6-0.7
			c0.6-0.5,0.9-1,1-1.7s0.2-1.8,0.2-3.4v-11.1h4v10.5c0,2.4-0.1,4.1-0.3,5.1c-0.2,1-0.6,1.8-1.2,2.5s-1.4,1.2-2.4,1.6
			c-1,0.4-2.3,0.6-3.8,0.6c-1.9,0-3.4-0.2-4.3-0.7c-1-0.4-1.8-1-2.3-1.7s-0.9-1.4-1.1-2.2c-0.3-1.1-0.4-2.8-0.4-5.1V488.6z"/>
		<path fill="#FFFFFF" d="M355.8,508.5v-20h8.5c2.1,0,3.7,0.2,4.7,0.5c1,0.4,1.7,1,2.3,1.9c0.6,0.9,0.9,2,0.9,3.1
			c0,1.5-0.4,2.7-1.3,3.7c-0.9,1-2.2,1.6-4,1.8c0.9,0.5,1.6,1.1,2.2,1.7c0.6,0.6,1.3,1.7,2.3,3.2l2.4,3.9H369l-2.9-4.3
			c-1-1.6-1.7-2.5-2.1-2.9s-0.8-0.7-1.2-0.8c-0.4-0.2-1.1-0.2-2-0.2h-0.8v8.3H355.8z M359.9,497h3c1.9,0,3.1-0.1,3.6-0.2
			c0.5-0.2,0.9-0.4,1.1-0.8c0.3-0.4,0.4-0.9,0.4-1.5c0-0.7-0.2-1.2-0.5-1.6c-0.4-0.4-0.9-0.7-1.5-0.8c-0.3,0-1.3-0.1-2.9-0.1h-3.1
			V497z"/>
		<path fill="#FFFFFF" d="M380.3,508.5v-20h4v20H380.3z"/>
		<path fill="#FFFFFF" d="M392.7,508.5v-20h3.9l8.2,13.3v-13.3h3.7v20h-4l-8.1-13v13H392.7z"/>
		<path fill="#FFFFFF" d="M435.3,508.5h-4.4l-1.7-4.5h-8l-1.6,4.5h-4.3l7.8-20h4.3L435.3,508.5z M427.9,500.6l-2.8-7.4l-2.7,7.4H427.9z
			"/>
		<path fill="#FFFFFF" d="M441.9,508.5v-20h6l3.6,13.6l3.6-13.6h6.1v20h-3.7v-15.7l-4,15.7h-3.9l-4-15.7v15.7H441.9z"/>
		<path fill="#FFFFFF" d="M469.6,508.5v-20h14.8v3.4h-10.8v4.4h10v3.4h-10v5.4h11.2v3.4H469.6z"/>
	</g>
	<g id="Guaranteed_Fund">
		<path fill="#FFFFFF" d="M290.9,474.9v-3.4h8.7v8c-0.8,0.8-2.1,1.5-3.7,2.2s-3.2,0.9-4.9,0.9c-2.1,0-3.9-0.4-5.5-1.3s-2.7-2.1-3.5-3.8
			c-0.8-1.6-1.2-3.4-1.2-5.3c0-2.1,0.4-3.9,1.3-5.5s2.1-2.9,3.8-3.7c1.3-0.7,2.9-1,4.8-1c2.5,0,4.4,0.5,5.8,1.6
			c1.4,1,2.3,2.5,2.7,4.3l-4,0.8c-0.3-1-0.8-1.8-1.6-2.3c-0.8-0.6-1.7-0.9-2.9-0.9c-1.8,0-3.2,0.6-4.2,1.7c-1,1.1-1.6,2.8-1.6,5
			c0,2.4,0.5,4.2,1.6,5.3c1.1,1.2,2.4,1.8,4.1,1.8c0.8,0,1.7-0.2,2.5-0.5c0.8-0.3,1.6-0.7,2.2-1.2v-2.5H290.9z"/>
		<path fill="#FFFFFF" d="M301,462.2h4v10.8c0,1.7,0,2.8,0.2,3.3c0.2,0.8,0.6,1.5,1.2,2c0.6,0.5,1.5,0.7,2.7,0.7c1.1,0,2-0.2,2.6-0.7
			c0.6-0.5,0.9-1,1-1.7s0.2-1.8,0.2-3.4v-11.1h4v10.5c0,2.4-0.1,4.1-0.3,5.1c-0.2,1-0.6,1.8-1.2,2.5s-1.4,1.2-2.4,1.6
			s-2.3,0.6-3.8,0.6c-1.9,0-3.4-0.2-4.3-0.7c-1-0.4-1.8-1-2.3-1.7s-0.9-1.4-1.1-2.2c-0.3-1.1-0.4-2.8-0.4-5.1V462.2z"/>
		<path fill="#FFFFFF" d="M337,482.2h-4.4l-1.7-4.5h-8l-1.6,4.5h-4.3l7.8-20h4.3L337,482.2z M329.6,474.3l-2.8-7.4l-2.7,7.4H329.6z"/>
		<path fill="#FFFFFF" d="M336.9,482.2v-20h8.5c2.1,0,3.7,0.2,4.7,0.5c1,0.4,1.7,1,2.3,1.9c0.6,0.9,0.9,2,0.9,3.1
			c0,1.5-0.4,2.7-1.3,3.7c-0.9,1-2.2,1.6-4,1.8c0.9,0.5,1.6,1.1,2.2,1.7c0.6,0.6,1.3,1.7,2.3,3.2l2.4,3.9H350l-2.9-4.3
			c-1-1.6-1.7-2.5-2.1-2.9s-0.8-0.7-1.2-0.8c-0.4-0.1-1.1-0.2-2-0.2h-0.8v8.3H336.9z M340.9,470.7h3c1.9,0,3.1-0.1,3.6-0.2
			c0.5-0.2,0.9-0.4,1.1-0.8c0.3-0.4,0.4-0.9,0.4-1.5c0-0.7-0.2-1.2-0.5-1.6c-0.4-0.4-0.9-0.7-1.5-0.8c-0.3,0-1.3-0.1-2.9-0.1h-3.1
			V470.7z"/>
		<path fill="#FFFFFF" d="M372.8,482.2h-4.4l-1.7-4.5h-8l-1.6,4.5h-4.3l7.8-20h4.3L372.8,482.2z M365.4,474.3l-2.8-7.4l-2.7,7.4H365.4z
			"/>
		<path fill="#FFFFFF" d="M372.8,482.2v-20h3.9l8.2,13.3v-13.3h3.7v20h-4l-8.1-13v13H372.8z"/>
		<path fill="#FFFFFF" d="M395.2,482.2v-16.6h-5.9v-3.4h15.9v3.4h-5.9v16.6H395.2z"/>
		<path fill="#FFFFFF" d="M405.5,482.2v-20h14.8v3.4h-10.8v4.4h10v3.4h-10v5.4h11.2v3.4H405.5z"/>
		<path fill="#FFFFFF" d="M421.9,482.2v-20h14.8v3.4h-10.8v4.4h10v3.4h-10v5.4h11.2v3.4H421.9z"/>
		<path fill="#FFFFFF" d="M443.8,482.2v-20h13.7v3.4h-9.7v4.7h8.3v3.4h-8.3v8.5H443.8z"/>
		<path fill="#FFFFFF" d="M458.6,462.2h4v10.8c0,1.7,0,2.8,0.2,3.3c0.2,0.8,0.6,1.5,1.2,2c0.6,0.5,1.5,0.7,2.7,0.7c1.1,0,2-0.2,2.6-0.7
			c0.6-0.5,0.9-1,1-1.7s0.2-1.8,0.2-3.4v-11.1h4v10.5c0,2.4-0.1,4.1-0.3,5.1c-0.2,1-0.6,1.8-1.2,2.5c-0.6,0.7-1.4,1.2-2.4,1.6
			s-2.3,0.6-3.8,0.6c-1.9,0-3.4-0.2-4.3-0.7c-1-0.4-1.8-1-2.3-1.7s-0.9-1.4-1.1-2.2c-0.3-1.1-0.4-2.8-0.4-5.1V462.2z"/>
		<path fill="#FFFFFF" d="M476.5,482.2v-20h3.9l8.2,13.3v-13.3h3.7v20h-4l-8.1-13v13H476.5z"/>
		<path fill="#FFFFFF" d="M494.4,462.2h7.4c1.7,0,2.9,0.1,3.8,0.4c1.2,0.3,2.2,1,3,1.8s1.5,2,1.9,3.2c0.4,1.3,0.7,2.9,0.7,4.7
			c0,1.6-0.2,3.1-0.6,4.3c-0.5,1.5-1.2,2.6-2.1,3.5c-0.7,0.7-1.6,1.2-2.8,1.6c-0.9,0.3-2.1,0.4-3.6,0.4h-7.6V462.2z M498.5,465.6
			v13.2h3c1.1,0,1.9-0.1,2.4-0.2c0.7-0.2,1.2-0.4,1.6-0.8s0.8-1,1.1-1.9c0.3-0.9,0.4-2.1,0.4-3.7c0-1.5-0.1-2.7-0.4-3.6
			c-0.3-0.8-0.7-1.5-1.1-1.9c-0.5-0.5-1.1-0.8-1.9-0.9c-0.6-0.1-1.7-0.2-3.3-0.2H498.5z"/>
	</g>
	<g id="CREDIT">
		<g>
			<path fill="#FACA0B" d="M325,404.2v15.3h-1.3c-1-4-2.7-7-5.3-9.2c-2.6-2.1-5.6-3.2-8.8-3.2c-2.8,0-5.3,0.8-7.6,2.4
				c-2.3,1.6-4,3.7-5,6.2c-1.4,3.3-2,6.9-2,10.9c0,3.9,0.5,7.5,1.5,10.8c1,3.2,2.6,5.7,4.7,7.4c2.1,1.7,4.9,2.5,8.3,2.5
				c2.8,0,5.3-0.6,7.6-1.8c2.3-1.2,4.7-3.3,7.3-6.3v3.8c-2.5,2.6-5,4.5-7.7,5.6c-2.7,1.2-5.8,1.7-9.4,1.7c-4.7,0-8.9-0.9-12.5-2.8
				c-3.7-1.9-6.5-4.6-8.5-8.1c-2-3.5-3-7.3-3-11.3c0-4.2,1.1-8.2,3.3-12c2.2-3.8,5.2-6.7,8.9-8.8c3.7-2.1,7.7-3.1,11.9-3.1
				c3.1,0,6.4,0.7,9.8,2c2,0.8,3.3,1.2,3.8,1.2c0.7,0,1.3-0.3,1.8-0.8c0.5-0.5,0.8-1.3,1-2.4H325z"/>
			<path fill="#FACA0B" d="M341,429.3v12.4c0,2.4,0.1,3.9,0.4,4.5s0.8,1.1,1.5,1.5c0.7,0.4,2.1,0.6,4.1,0.6v1.2h-22.6v-1.2
				c2,0,3.4-0.2,4.1-0.6c0.7-0.4,1.2-0.9,1.5-1.5c0.3-0.6,0.4-2.1,0.4-4.5V413c0-2.4-0.1-3.9-0.4-4.5s-0.8-1.1-1.5-1.5
				c-0.7-0.4-2.1-0.6-4.1-0.6v-1.2H345c5.3,0,9.2,0.4,11.7,1.1c2.5,0.7,4.5,2.1,6,4.1c1.6,2,2.3,4.3,2.3,7c0,3.3-1.2,5.9-3.5,8.1
				c-1.5,1.3-3.6,2.4-6.3,3l10.6,14.9c1.4,1.9,2.4,3.1,3,3.6c0.9,0.7,1.9,1,3.1,1.1v1.2h-13.9l-14.2-20.1H341z M341,407.6v19.3h1.9
				c3,0,5.3-0.3,6.8-0.8c1.5-0.6,2.7-1.5,3.5-3s1.3-3.3,1.3-5.6c0-3.4-0.8-5.8-2.4-7.4c-1.6-1.6-4.1-2.4-7.6-2.4H341z"/>
			<path fill="#FACA0B" d="M384.2,407.8v18h0.9c2.8,0,4.8-0.9,6.1-2.6c1.3-1.8,2.1-4.3,2.4-7.8h1.2v23.1h-1.2c-0.3-2.5-0.8-4.6-1.6-6.2
				c-0.8-1.6-1.8-2.7-2.9-3.2c-1.1-0.6-2.7-0.8-4.8-0.8v12.4c0,2.4,0.1,3.9,0.3,4.5c0.2,0.5,0.6,1,1.2,1.3c0.6,0.3,1.5,0.5,2.7,0.5
				h2.6c4.1,0,7.4-1,9.9-2.9c2.5-1.9,4.3-4.8,5.4-8.7h1.2l-2,14h-38.1v-1.2h1.5c1.3,0,2.3-0.2,3.1-0.7c0.6-0.3,1-0.8,1.3-1.6
				c0.2-0.5,0.4-1.9,0.4-4.1v-29c0-2-0.1-3.2-0.2-3.7c-0.2-0.8-0.6-1.3-1.2-1.8c-0.8-0.6-2-0.9-3.4-0.9h-1.5v-1.2h36.9v13h-1.2
				c-0.6-3.2-1.5-5.5-2.7-6.9c-1.1-1.4-2.7-2.4-4.8-3.1c-1.2-0.4-3.5-0.6-6.8-0.6H384.2z"/>
			<path fill="#FACA0B" d="M406.1,449.4v-1.2h1.5c1.3,0,2.3-0.2,2.9-0.6c0.7-0.4,1.2-0.9,1.5-1.6c0.2-0.5,0.3-1.8,0.3-4.1v-29
				c0-2.3-0.1-3.7-0.4-4.2c-0.2-0.6-0.7-1.1-1.4-1.5s-1.7-0.6-2.9-0.6h-1.5v-1.2h19.7c5.3,0,9.5,0.7,12.7,2.1c3.9,1.8,6.9,4.4,8.9,8
				s3,7.6,3,12.1c0,3.1-0.5,6-1.5,8.6s-2.3,4.8-3.9,6.5c-1.6,1.7-3.4,3.1-5.5,4.1c-2.1,1-4.6,1.8-7.6,2.4c-1.3,0.3-3.4,0.4-6.2,0.4
				H406.1z M422.9,407.8v34.4c0,1.8,0.1,2.9,0.3,3.4s0.5,0.7,0.9,0.9c0.6,0.3,1.4,0.5,2.5,0.5c3.6,0,6.4-1.2,8.3-3.7
				c2.6-3.3,3.9-8.5,3.9-15.5c0-5.7-0.9-10.2-2.7-13.6c-1.4-2.6-3.2-4.4-5.4-5.4C429.1,408.1,426.5,407.7,422.9,407.8z"/>
			<path fill="#FACA0B" d="M472.4,448.2v1.2h-23.1v-1.2h1.5c1.3,0,2.3-0.2,3.1-0.7c0.6-0.3,1-0.8,1.3-1.6c0.2-0.5,0.4-1.9,0.4-4.1v-29
				c0-2.3-0.1-3.7-0.4-4.2c-0.2-0.6-0.7-1.1-1.4-1.5c-0.7-0.4-1.7-0.6-2.9-0.6h-1.5v-1.2h23.1v1.2h-1.5c-1.3,0-2.3,0.2-3.1,0.7
				c-0.6,0.3-1,0.8-1.3,1.6c-0.2,0.5-0.4,1.9-0.4,4.1v29c0,2.3,0.1,3.7,0.4,4.2c0.2,0.6,0.7,1.1,1.5,1.5s1.7,0.6,2.9,0.6H472.4z"/>
			<path fill="#FACA0B" d="M510.6,405.2v11.9h-1.2c-0.7-2.8-1.5-4.7-2.3-5.9c-0.8-1.2-2-2.2-3.5-2.9c-0.8-0.4-2.3-0.6-4.3-0.6H496v34
				c0,2.3,0.1,3.7,0.4,4.2c0.2,0.6,0.7,1.1,1.5,1.5s1.7,0.6,3,0.6h1.5v1.2h-23.1v-1.2h1.5c1.3,0,2.3-0.2,3.1-0.7
				c0.6-0.3,1-0.8,1.3-1.6c0.2-0.5,0.4-1.9,0.4-4.1v-34h-3.2c-3,0-5.1,0.6-6.5,1.9c-1.9,1.8-3.1,4.3-3.6,7.5H471v-11.9H510.6z"/>
		</g>
	</g>
</g>
</svg>
