<?xml version="1.0" encoding="utf-8"?>
<!-- Generator: Adobe Illustrator 22.0.1, SVG Export Plug-In . SVG Version: 6.00 Build 0)  -->
<svg version="1.1" id="Layer_1" xmlns="http://www.w3.org/2000/svg" xmlns:xlink="http://www.w3.org/1999/xlink" x="0px" y="0px"
	 viewBox="0 0 360 360" style="enable-background:new 0 0 360 360;" xml:space="preserve">
<g id="Inner">
	<g>
		<rect x="244.9" y="193" transform="matrix(0.2588 -0.9659 0.9659 0.2588 -6.2566 389.8561)" fill="#036635" width="12" height="12"/>
	</g>
	<g>
		<rect x="237.6" y="210.7" transform="matrix(0.5 -0.866 0.866 0.5 -65.8899 319.2943)" fill="#036635" width="12" height="12"/>
	</g>
	<g>
		
			<rect x="225.9" y="225.9" transform="matrix(0.7071 -0.7071 0.7071 0.7071 -96.0634 231.9069)" fill="#036635" width="12" height="12"/>
	</g>
	<g>
		<rect x="210.7" y="237.6" transform="matrix(0.866 -0.5 0.5 0.866 -92.7563 140.9833)" fill="#036635" width="12" height="12"/>
	</g>
	<g>
		<rect x="193" y="244.9" transform="matrix(0.9659 -0.2588 0.2588 0.9659 -58.1596 60.0532)" fill="#036635" width="12" height="12"/>
	</g>
	<g>
		<rect x="174" y="247.4" fill="#036635" width="12" height="12"/>
	</g>
	<g>
		
			<rect x="155" y="244.9" transform="matrix(0.2588 -0.9659 0.9659 0.2588 -123.031 341.4767)" fill="#036635" width="12" height="12"/>
	</g>
	<g>
		<rect x="137.3" y="237.6" transform="matrix(0.5 -0.866 0.866 0.5 -139.2942 245.8793)" fill="#036635" width="12" height="12"/>
	</g>
	<g>
		
			<rect x="122.1" y="225.9" transform="matrix(0.7071 -0.7071 0.7071 0.7071 -126.4654 158.4951)" fill="#036635" width="12" height="12"/>
	</g>
	<g>
		<rect x="110.4" y="210.7" transform="matrix(0.866 -0.5 0.5 0.866 -92.7524 87.2437)" fill="#036635" width="12" height="12"/>
	</g>
	<g>
		<rect x="103.1" y="193" transform="matrix(0.9659 -0.2588 0.2588 0.9659 -47.7865 35.0152)" fill="#036635" width="12" height="12"/>
	</g>
	<g>
		<rect x="100.6" y="174" fill="#036635" width="12" height="12"/>
	</g>
	<g>
		
			<rect x="103.1" y="155" transform="matrix(0.2588 -0.9659 0.9659 0.2588 -74.6516 224.7023)" fill="#036635" width="12" height="12"/>
	</g>
	<g>
		<rect x="110.4" y="137.3" transform="matrix(0.5 -0.866 0.866 0.5 -65.8793 172.4749)" fill="#036635" width="12" height="12"/>
	</g>
	<g>
		
			<rect x="122.1" y="122.1" transform="matrix(0.7071 -0.7071 0.7071 0.7071 -53.0535 128.0931)" fill="#036635" width="12" height="12"/>
	</g>
	<g>
		<rect x="137.3" y="110.4" transform="matrix(0.866 -0.5 0.5 0.866 -39.0128 87.2476)" fill="#036635" width="12" height="12"/>
	</g>
	<g>
		<rect x="155" y="103.1" transform="matrix(0.9659 -0.2588 0.2588 0.9659 -22.7485 45.3884)" fill="#036635" width="12" height="12"/>
	</g>
	<g>
		<rect x="174" y="100.6" fill="#036635" width="12" height="12"/>
	</g>
	<g>
		<rect x="193" y="103.1" transform="matrix(0.2588 -0.9659 0.9659 0.2588 42.1228 273.0817)" fill="#036635" width="12" height="12"/>
	</g>
	<g>
		<rect x="210.7" y="110.4" transform="matrix(0.5 -0.866 0.866 0.5 7.5251 245.8899)" fill="#036635" width="12" height="12"/>
	</g>
	<g>
		
			<rect x="225.9" y="122.1" transform="matrix(0.7071 -0.7071 0.7071 0.7071 -22.6515 201.5049)" fill="#036635" width="12" height="12"/>
	</g>
	<g>
		<rect x="237.6" y="137.3" transform="matrix(0.866 -0.5 0.5 0.866 -39.0167 140.9872)" fill="#036635" width="12" height="12"/>
	</g>
	<g>
		<rect x="244.9" y="155" transform="matrix(0.9659 -0.2588 0.2588 0.9659 -33.1217 70.4263)" fill="#036635" width="12" height="12"/>
	</g>
	<g>
		<rect x="247.4" y="174" fill="#036635" width="12" height="12"/>
	</g>
</g>
<g id="Mid">
	<g>
		<rect x="262.9" y="223.9" transform="matrix(0.5 -0.866 0.866 0.5 -65.7937 351.9089)" fill="#036635" width="18" height="18"/>
	</g>
	<g>
		<rect x="224.1" y="262.8" transform="matrix(0.866 -0.5 0.5 0.866 -104.6589 152.9563)" fill="#036635" width="18" height="18"/>
	</g>
	<g>
		<rect x="171.1" y="277" fill="#036635" width="18" height="18"/>
	</g>
	<g>
		<rect x="118.1" y="262.9" transform="matrix(0.5 -0.866 0.866 0.5 -171.9089 245.9754)" fill="#036635" width="18" height="18"/>
	</g>
	<g>
		<rect x="79.2" y="224.1" transform="matrix(0.866 -0.5 0.5 0.866 -104.7254 75.3411)" fill="#036635" width="18" height="18"/>
	</g>
	<g>
		<rect x="65" y="171.1" fill="#036635" width="18" height="18"/>
	</g>
	<g>
		<rect x="79.1" y="118.1" transform="matrix(0.5 -0.866 0.866 0.5 -65.9754 139.8602)" fill="#036635" width="18" height="18"/>
	</g>
	<g>
		<rect x="117.9" y="79.2" transform="matrix(0.866 -0.5 0.5 0.866 -27.1102 75.2746)" fill="#036635" width="18" height="18"/>
	</g>
	<g>
		<rect x="170.9" y="65" fill="#036635" width="18" height="18"/>
	</g>
	<g>
		<rect x="223.9" y="79.1" transform="matrix(0.5 -0.866 0.866 0.5 40.1398 245.7937)" fill="#036635" width="18" height="18"/>
	</g>
	<g>
		<rect x="262.8" y="117.9" transform="matrix(0.866 -0.5 0.5 0.866 -27.0437 152.8898)" fill="#036635" width="18" height="18"/>
	</g>
	<g>
		<rect x="277" y="170.9" fill="#036635" width="18" height="18"/>
	</g>
</g>
<g id="Outer">
	<g>
		
			<rect x="316.6" y="208.1" transform="matrix(0.2588 -0.9659 0.9659 0.2588 30.9905 480.5458)" fill="#036635" width="24" height="24"/>
	</g>
	<g>
		
			<rect x="276.7" y="277" transform="matrix(0.7071 -0.7071 0.7071 0.7071 -119.8189 288.7755)" fill="#036635" width="24" height="24"/>
	</g>
	<g>
		
			<rect x="207.6" y="316.8" transform="matrix(0.9659 -0.2588 0.2588 0.9659 -77.6046 68.0394)" fill="#036635" width="24" height="24"/>
	</g>
	<g>
		
			<rect x="127.9" y="316.6" transform="matrix(0.2588 -0.9659 0.9659 0.2588 -213.7207 378.7238)" fill="#036635" width="24" height="24"/>
	</g>
	<g>
		<rect x="59" y="276.7" transform="matrix(0.7071 -0.7071 0.7071 0.7071 -183.334 134.7395)" fill="#036635" width="24" height="24"/>
	</g>
	<g>
		
			<rect x="19.2" y="207.6" transform="matrix(0.9659 -0.2588 0.2588 0.9659 -55.7727 15.5702)" fill="#036635" width="24" height="24"/>
	</g>
	<g>
		
			<rect x="19.4" y="127.9" transform="matrix(0.2588 -0.9659 0.9659 0.2588 -111.8986 134.0126)" fill="#036635" width="24" height="24"/>
	</g>
	<g>
		<rect x="59.3" y="59" transform="matrix(0.7071 -0.7071 0.7071 0.7071 -29.2979 71.2244)" fill="#036635" width="24" height="24"/>
	</g>
	<g>
		<rect x="128.4" y="19.2" transform="matrix(0.9659 -0.2588 0.2588 0.9659 -3.3035 37.4022)" fill="#036635" width="24" height="24"/>
	</g>
	<g>
		
			<rect x="208.1" y="19.4" transform="matrix(0.2588 -0.9659 0.9659 0.2588 132.8125 235.8347)" fill="#036635" width="24" height="24"/>
	</g>
	<g>
		<rect x="277" y="59.3" transform="matrix(0.7071 -0.7071 0.7071 0.7071 34.2171 225.2605)" fill="#036635" width="24" height="24"/>
	</g>
	<g>
		
			<rect x="316.8" y="128.4" transform="matrix(0.9659 -0.2588 0.2588 0.9659 -25.1355 89.8713)" fill="#036635" width="24" height="24"/>
	</g>
</g>
</svg>
